<svg xmlns="http://www.w3.org/2000/svg" width="1001" height="347" viewBox="0 0 1001 347">
    <g fill="none" fill-rule="evenodd">
        <path fill="#645FAA" d="M554.558 15.867c4.138 8.347 1.707 19.284-2.61 26.778l-33.41 75.163-.288.352-12.076-76.25c-.97-7.322 6.855-10.446 11.459-13.964-.234-1.076-1.418-1.023-2.163-1.524l-11.288-.118-.343-.34c.065-9.467 5.16-18.208 13.794-22.802 9.02-5.212 21.725-3.795 29.549 2.89 3.178 2.833 5.854 6.126 7.376 9.815"/>
        <path fill="#C9234A" d="M493.008 13.255c2.73 5.053 4.308 10.789 3.348 17.14l-13.623 87.306c.074.106-.053.224-.161.276l-3.528-7.024-34.144-76.25c-3.177-9.818-.234-20.083 6.918-27.12 7.206-7.312 19.06-9.295 28.484-5.33 4.989 2.155 9.754 6.12 12.706 11.002"/>
        <path fill="#0089CF" d="M603.979 50.01c4.593 7.834 3.56 19.69-1.548 26.96-3.165 5.105-8.39 7.653-12.813 11l-70.748 48.565h-.163l.792-2.323 37.5-84.649c5.62-9.978 16.342-15.03 27.684-13.507 7.773 1.42 15.543 6.471 19.296 13.954"/>
        <path fill="#F36F21" d="M443.259 49.563l39.026 86.963h-.628l-78.68-54.227c-8.007-6.747-11.29-16.853-8.571-27.065 2.036-7.654 8.389-14.806 15.947-17.643 12.375-4.53 26.317.288 32.906 11.972"/>
        <path fill="#0DB14B" d="M624.509 111.4c3.922 8.283 2.377 19.625-3.23 26.67-5.563 6.749-13.004 10.437-21.736 10.202l-83.892.054 70.278-48.896c6.867-4.424 17.304-5.225 24.797-1.643 5.787 2.27 11.235 7.942 13.783 13.613"/>
        <path fill="#FDB913" d="M376.08 111.4c-3.91 8.283-2.377 19.625 3.241 26.67 5.564 6.749 12.983 10.437 21.725 10.202l83.893.054-70.28-48.896c-6.865-4.424-17.3-5.225-24.784-1.643-5.79 2.27-11.236 7.942-13.795 13.613"/>
        <path fill="#000" d="M225.435 331.825c-32.736 0-59.375-26.637-59.375-59.362 0-32.718 26.64-59.356 59.375-59.356 32.737 0 59.376 26.639 59.376 59.356 0 32.725-26.639 59.362-59.376 59.362m0-133.28c-40.763 0-73.893 33.152-73.893 73.917 0 40.753 33.13 73.925 73.893 73.925 40.764 0 73.916-33.172 73.916-73.925 0-40.764-33.152-73.916-73.916-73.916M862.724 273.399c-3.965-2.08-28.088-14.498-31.553-16.3-12.653-6.47-17.14-12.184-17.14-21.863 0-13.452 11.045-22.14 28.172-22.14 10.054 0 19.774 4.424 25.478 7.632a7.41 7.41 0 0 0 3.539.885c3.987 0 7.26-3.272 7.26-7.26 0-2.684-1.473-5.042-3.635-6.3-7.184-4.008-19.433-9.498-32.642-9.498-25.167 0-42.724 15.073-42.724 36.68 0 19.393 12.75 28.538 25.223 34.913 3.495 1.78 27.895 14.358 31.55 16.287 9.638 5.042 14.968 12.61 14.968 21.32 0 11.673-9.891 24.082-28.193 24.082-17.804 0-31.628-11.94-35.445-15.618l-1.141-1.088-10.756 9.807 1.258 1.258c4.774 4.735 22.236 20.19 46.084 20.19 26.734 0 42.714-19.646 42.714-38.63 0-14.177-8.38-26.705-23.017-34.357M73.895 213.106c15.872 0 30.785 6.184 41.978 17.365 2.665 2.655 7.675 2.655 10.297 0 1.386-1.354 2.121-3.176 2.121-5.127 0-1.93-.735-3.774-2.121-5.128l-.895-.917c-13.837-13.39-32.097-20.754-51.38-20.754C33.152 198.545 0 231.709 0 272.45c0 40.765 33.152 73.937 73.895 73.937 21.51 0 40.89-9.23 54.396-23.942l-10.287-10.297c-10.873 12.067-26.607 19.678-44.11 19.678-32.726 0-59.365-26.648-59.365-59.375.001-32.695 26.64-59.345 59.366-59.345M574.941 213.106c15.852 0 30.784 6.184 41.977 17.365 2.654 2.655 7.666 2.655 10.288 0a7.117 7.117 0 0 0 2.153-5.127 7.16 7.16 0 0 0-2.153-5.128l-.885-.917c-13.868-13.39-32.108-20.754-51.38-20.754-40.752 0-73.916 33.162-73.916 73.904 0 40.765 33.164 73.937 73.916 73.937 21.5 0 40.88-9.23 54.406-23.942l-10.298-10.297c-10.873 12.067-26.629 19.678-44.108 19.678-32.737 0-59.388-26.648-59.388-59.375 0-32.694 26.651-59.344 59.388-59.344M449.741 198.545c-2.729 0-4.883 1.76-6.056 4.028-1.194 2.271-43.492 106.898-43.502 106.898 0 0-42.298-104.628-43.482-106.898-1.183-2.27-3.335-4.028-6.064-4.028-3.188 0-5.586 2.345-6.428 5.3-.842 2.971-24.709 134.651-24.709 134.651a6.787 6.787 0 0 0-.128 1.333c0 3.623 2.953 6.557 6.556 6.557a6.546 6.546 0 0 0 6.438-5.297l20.67-112.664s39.878 98.517 41.04 100.861c1.173 2.335 3.347 4.158 6.12 4.158 2.77 0 4.935-1.823 6.096-4.158 1.173-2.345 41.051-100.86 41.051-100.86l21.48 117.15h13.347s-25.147-138.76-25.989-141.732c-.855-2.954-3.254-5.299-6.44-5.299M690.546 276.542l21.98-54.047 22.002 54.047h-43.982zm21.98-77.987c-2.76-.01-4.901 1.791-6.106 4.135-1.195 2.335-54.738 134.582-54.738 134.582a6.712 6.712 0 0 0-.502 2.558c0 3.623 2.932 6.566 6.556 6.566 2.76 0 5.128-1.726 6.099-4.167l20.785-51.134h55.825l22.174 54.48h14.166s-56.987-140.55-58.16-142.886c-1.163-2.343-3.327-4.144-6.098-4.134zM992.966 199.333h-82.293c-4.01 0-7.26 3.263-7.26 7.28 0 3.998 3.25 7.26 7.26 7.26h34.494v131.692h13.326V213.874h34.473c4.009 0 7.292-3.262 7.292-7.26 0-4.018-3.283-7.28-7.292-7.28"/>
    </g>
</svg>
