<svg xmlns="http://www.w3.org/2000/svg" xmlns:xlink="http://www.w3.org/1999/xlink" width="459" height="155" viewBox="0 0 459 155">
    <defs>
        <path id="a" d="M0 0h458.041v154.524H.001z"/>
    </defs>
    <g fill="none" fill-rule="evenodd">
        <mask id="b" fill="#fff">
            <use xlink:href="#a"/>
        </mask>
        <path fill="#000" d="M102.226 54.036v66.044H118.5V54.036h20.856V39.5H118.5v-6.004c0-13.746 8.216-18.328 16.274-18.328 2.054 0 3.95.316 5.53.79l3.318-14.378C141.568.79 138.25 0 133.51 0c-20.224 0-31.284 15.01-31.284 33.18v6.32h-8.532l-10.27 14.536h18.802zM327.85 91.482c0 17.538 10.744 30.02 30.02 30.02 4.74 0 8.69-.632 11.85-1.58l-3.318-14.22c-2.054.475-4.582.79-7.426.79-7.9 0-14.853-4.266-14.853-15.326v-37.13h22.752L360.24 39.5h-16.117V7.11l-16.273 7.11V39.5h-17.223v14.536h17.223v37.446zM188.02 39.5v80.58h16.274v-55.3c5.056-7.11 12.324-11.534 21.33-11.534 12.008 0 20.224 7.584 20.224 22.752v36.34c0 4.582 3.16 7.742 7.584 7.742h8.69V73.154c0-20.856-13.272-35.392-32.548-35.392-10.27 0-18.802 3.634-25.28 9.638v-7.9H188.02zm211.088 109.02L458.041 39.5h-8.847c-5.372 0-9.48 1.58-11.693 5.688l-23.225 43.134-20.067-43.134c-2.053-4.266-6.319-5.688-11.69-5.688h-8.533l30.968 65.728-27.018 49.296h8.848c5.53 0 9.954-1.738 12.324-6.004zm-246.796-28.44h16.274V39.5h-16.274v80.58zm129.086 0h16.274V39.5h-16.274v80.58zM51.192 78.053L79.948 39.5H67.94c-5.372 0-8.848 1.896-11.692 5.688L41.08 65.57 26.386 45.188c-2.844-3.792-6.32-5.688-11.692-5.688H2.686l28.44 38.553L0 120.08h11.376c5.372 0 8.848-1.896 11.692-5.688L41.08 90.534l42.186 58.302c2.686 3.792 6.32 5.688 11.692 5.688h12.324l-56.09-76.471z" mask="url(#b)"/>
    </g>
</svg>
